<svg xmlns="http://www.w3.org/2000/svg" viewBox="96 10 708 260" role="img" aria-labelledby="t">
  <title id="t">A grid of apps collapsing into one app</title>
  <g transform="translate(86,0)">
    <path fill="#000" fill-rule="evenodd"
      d="M52.00,17.50 H228.00 A34.50,34.50 0 0 1 262.50,52.00 V228.00 A34.50,34.50 0 0 1 228.00,262.50 H52.00 A34.50,34.50 0 0 1 17.50,228.00 V52.00 A34.50,34.50 0 0 1 52.00,17.50 Z M52.00,22.50 H228.00 A29.50,29.50 0 0 1 257.50,52.00 V228.00 A29.50,29.50 0 0 1 228.00,257.50 H52.00 A29.50,29.50 0 0 1 22.50,228.00 V52.00 A29.50,29.50 0 0 1 52.00,22.50 Z"/>
    <g fill="#000">
      <path transform="translate(75,75)"  d="M-15,-10 a5,5 0 0 1 5,-5 h20 a5,5 0 0 1 5,5 v20 a5,5 0 0 1 -5,5 h-20 a5,5 0 0 1 -5,-5 z"/>
      <path transform="translate(140,75)" d="M-11,-15 L15,0 L-11,15 z"/>
      <path transform="translate(205,75)" d="M0,-15 a15,15 0 1 1 0,30 a15,15 0 1 1 0,-30 z"/>

      <path transform="translate(75,139)"  d="M-12,-14 h24 a4,4 0 0 1 4,4 v14 a4,4 0 0 1 -4,4 h-11 l-9,9 v-9 h-4 a4,4 0 0 1 -4,-4 v-14 a4,4 0 0 1 4,-4 z"/>
      <path transform="translate(140,140)" d="M-17,-8 h8 l3,-5 h12 l3,5 h8 a3,3 0 0 1 3,3 v16 a3,3 0 0 1 -3,3 h-34 a3,3 0 0 1 -3,-3 v-16 a3,3 0 0 1 3,-3 z M0,-6 a7,7 0 1 0 0,14 a7,7 0 1 0 0,-14 z"/>
      <path transform="translate(205,140)" fill-rule="evenodd" d="M-17,-12 h34 v24 h-34 z M-17,-12 L0,4 L17,-12 z"/>

      <path transform="translate(75,205)"  d="M-11,-15 h22 v30 l-11,-10 l-11,10 z"/>
      <path transform="translate(140,205)" d="M0,-16 a8,8 0 1 1 0,16 a8,8 0 1 1 0,-16 z M-14,5 a14,13 0 0 1 28,0 v11 h-28 z"/>
      <path transform="translate(205,206)" d="M0,14 C-18,2 -16,-10 -8,-13 C-3,-15 0,-10 0,-7 C0,-10 3,-15 8,-13 C16,-10 18,2 0,14 z"/>
    </g>
  </g>
  <g fill="#000">
    <path d="M345.11,77.34 L515.11,142.34 L516.89,137.66 L346.89,72.66 Z"/>
    <path d="M345.53,109.96 L515.53,142.46 L516.47,137.54 L346.47,105.04 Z"/>
    <path d="M346.00,142.50 L516.00,142.50 L516.00,137.50 L346.00,137.50 Z"/>
    <path d="M346.47,174.96 L516.47,142.46 L515.53,137.54 L345.53,170.04 Z"/>
    <path d="M346.89,207.34 L516.89,142.34 L515.11,137.66 L345.11,202.66 Z"/>
    <path d="M514,126 L540,140 L514,154 Z"/>
  </g>
  <g transform="translate(-86,0)">
    <path fill="#000" fill-rule="evenodd"
      d="M672,20 H848 A32,32 0 0 1 880,52 V228 A32,32 0 0 1 848,260 H672 A32,32 0 0 1 640,228 V52 A32,32 0 0 1 672,20 Z M 736.55,206.77 H 701.39 C 699.89,206.77 698.67,205.55 698.67,204.04 V 75.96 C 698.67,74.45 699.89,73.23 701.39,73.23 H 818.61 C 820.11,73.23 821.33,74.45 821.33,75.96 V 103.39 C 821.33,104.90 820.11,106.12 818.61,106.12 H 747.23 C 743.05,106.12 738.81,106.12 739.27,116.04 V 204.04 C 739.27,205.55 738.05,206.77 736.55,206.77 Z M 818.61,131.28 H 756.71 C 772.04,137.63 779.59,135.56 779.01,147.29 V 204.04 C 779.01,205.55 780.23,206.77 781.74,206.77 H 818.61 C 820.11,206.77 821.33,205.55 821.33,204.04 V 134.00 C 821.33,132.50 820.11,131.28 818.61,131.28 Z"/>
  </g>
</svg>
